<svg width="2429" height="1961" viewBox="0 0 2429 1961" fill="none" xmlns="http://www.w3.org/2000/svg">
<path d="M102.8 291V292H103.8V291H102.8ZM26.8 291H25.8V292H26.8V291ZM26.8 5.39998V4.39998H25.8V5.39998H26.8ZM195.6 5.39998H196.6V4.39998H195.6V5.39998ZM195.6 67.4V68.4H196.6V67.4H195.6ZM102.8 67.4V66.4H101.8V67.4H102.8ZM102.8 121.8H101.8V122.8H102.8V121.8ZM188.4 121.8H189.4V120.8H188.4V121.8ZM188.4 183.8V184.8H189.4V183.8H188.4ZM102.8 183.8V182.8H101.8V183.8H102.8ZM102.8 290H26.8V292H102.8V290ZM27.8 291V5.39998H25.8V291H27.8ZM26.8 6.39998H195.6V4.39998H26.8V6.39998ZM194.6 5.39998V67.4H196.6V5.39998H194.6ZM195.6 66.4H102.8V68.4H195.6V66.4ZM101.8 67.4V121.8H103.8V67.4H101.8ZM102.8 122.8H188.4V120.8H102.8V122.8ZM187.4 121.8V183.8H189.4V121.8H187.4ZM188.4 182.8H102.8V184.8H188.4V182.8ZM101.8 183.8V291H103.8V183.8H101.8ZM455.225 135L454.401 134.433L454.398 134.437L455.225 135ZM420.025 166.6L419.529 165.732L418.597 166.264L419.194 167.156L420.025 166.6ZM503.225 291V292H505.097L504.056 290.444L503.225 291ZM415.625 291L414.76 291.502L415.049 292H415.625V291ZM355.225 187L356.09 186.498L355.801 186H355.225V187ZM335.625 187V186H334.625V187H335.625ZM335.625 291V292H336.625V291H335.625ZM258.425 291H257.425V292H258.425V291ZM258.425 5.39998V4.39998H257.425V5.39998H258.425ZM335.625 63.8V62.8H334.625V63.8H335.625ZM335.625 129H334.625V130H335.625V129ZM378.825 121.4L379.387 122.227L379.393 122.223L378.825 121.4ZM381.225 71.8L380.569 72.5546L380.578 72.5629L380.588 72.5709L381.225 71.8ZM352.025 6.39998C390.734 6.39998 419.585 13.4222 438.738 27.3096C457.831 41.1537 467.425 61.9236 467.425 89.8H469.425C469.425 61.4097 459.619 39.9796 439.912 25.6904C420.265 11.4445 390.916 4.39998 352.025 4.39998V6.39998ZM467.425 89.8C467.425 106.955 463.073 121.819 454.401 134.433L456.049 135.567C464.977 122.581 469.425 107.311 469.425 89.8H467.425ZM454.398 134.437C445.961 146.829 434.348 157.264 419.529 165.732L420.521 167.468C435.569 158.87 447.422 148.238 456.052 135.563L454.398 134.437ZM419.194 167.156L502.394 291.556L504.056 290.444L420.856 166.044L419.194 167.156ZM503.225 290H415.625V292H503.225V290ZM416.49 290.498L356.09 186.498L354.36 187.502L414.76 291.502L416.49 290.498ZM355.225 186H335.625V188H355.225V186ZM334.625 187V291H336.625V187H334.625ZM335.625 290H258.425V292H335.625V290ZM259.425 291V5.39998H257.425V291H259.425ZM258.425 6.39998H352.025V4.39998H258.425V6.39998ZM350.825 62.8H335.625V64.8H350.825V62.8ZM334.625 63.8V129H336.625V63.8H334.625ZM335.625 130H350.025V128H335.625V130ZM350.025 130C361.899 130 371.711 127.436 379.387 122.227L378.264 120.573C371.006 125.497 361.618 128 350.025 128V130ZM379.393 122.223C387.499 116.632 391.425 106.914 391.425 93.4H389.425C389.425 106.553 385.617 115.501 378.257 120.577L379.393 122.223ZM391.425 93.4C391.425 83.8259 388.266 76.3195 381.862 71.029L380.588 72.5709C386.451 77.4138 389.425 84.3074 389.425 93.4H391.425ZM381.881 71.0454C375.473 65.4727 365.037 62.8 350.825 62.8V64.8C364.879 64.8 374.711 67.4607 380.569 72.5546L381.881 71.0454ZM797.928 225.4L797.011 225.002L797.008 225.007L797.928 225.4ZM753.128 276.6L752.615 275.742L752.61 275.744L753.128 276.6ZM594.728 276.6L594.215 277.458L594.215 277.458L594.728 276.6ZM549.128 225L548.211 225.398L548.215 225.407L549.128 225ZM549.528 70.2L550.44 70.6113L550.441 70.6071L549.528 70.2ZM595.128 19L595.633 19.8634L595.633 19.8634L595.128 19ZM753.128 19.4L752.61 20.2555L752.617 20.2595L752.624 20.2634L753.128 19.4ZM797.928 70.6L797.007 70.9886L797.01 70.9953L797.013 71.002L797.928 70.6ZM629.128 208.6L628.271 209.115L628.278 209.126L629.128 208.6ZM718.328 208.6L719.192 209.103L719.192 209.103L718.328 208.6ZM718.328 86.6L719.196 86.1038L719.196 86.1038L718.328 86.6ZM629.128 86.6L628.267 86.0923L628.267 86.0923L629.128 86.6ZM811.328 147.8C811.328 177.293 806.545 203.019 797.011 225.002L798.846 225.798C808.511 203.514 813.328 177.507 813.328 147.8H811.328ZM797.008 225.007C787.759 246.678 772.968 263.583 752.615 275.742L753.641 277.458C774.355 265.084 789.431 247.855 798.848 225.793L797.008 225.007ZM752.61 275.744C732.549 287.887 706.213 294 673.528 294V296C706.443 296 733.174 289.846 753.646 277.455L752.61 275.744ZM673.528 294C641.65 294 615.575 287.889 595.241 275.742L594.215 277.458C614.948 289.844 641.407 296 673.528 296V294ZM595.241 275.742C574.887 263.582 559.825 246.541 550.041 224.593L548.215 225.407C558.164 247.726 573.503 265.085 594.215 277.458L595.241 275.742ZM550.046 224.602C540.511 202.619 535.728 176.893 535.728 147.4H533.728C533.728 177.107 538.545 203.114 548.211 225.398L550.046 224.602ZM535.728 147.4C535.728 117.909 540.643 92.3221 550.44 70.6113L548.617 69.7887C538.68 91.8112 533.728 117.69 533.728 147.4H535.728ZM550.441 70.6071C560.225 48.661 575.284 31.7557 595.633 19.8634L594.624 18.1366C573.906 30.2443 558.565 47.4723 548.615 69.7928L550.441 70.6071ZM595.633 19.8634C615.969 7.97857 642.046 1.99999 673.928 1.99999V-9.53674e-06C641.81 -9.53674e-06 615.354 6.02141 594.624 18.1366L595.633 19.8634ZM673.928 1.99999C706.344 1.99999 732.548 8.11231 752.61 20.2555L753.646 18.5445C733.175 6.15434 706.579 -9.53674e-06 673.928 -9.53674e-06V1.99999ZM752.624 20.2634C772.968 32.1531 787.756 49.0522 797.007 70.9886L798.85 70.2114C789.433 47.8811 774.355 30.6469 753.633 18.5366L752.624 20.2634ZM797.013 71.002C806.545 92.7154 811.328 118.306 811.328 147.8H813.328C813.328 118.094 808.511 92.2179 798.844 70.198L797.013 71.002ZM614.928 147.8C614.928 173.762 619.341 194.232 628.271 209.114L629.986 208.085C621.315 193.634 616.928 173.571 616.928 147.8H614.928ZM628.278 209.126C637.564 224.147 652.726 231.6 673.528 231.6V229.6C653.264 229.6 638.826 222.386 629.979 208.074L628.278 209.126ZM673.528 231.6C695.111 231.6 710.432 224.159 719.192 209.103L717.464 208.097C709.157 222.374 694.612 229.6 673.528 229.6V231.6ZM719.192 209.103C727.849 194.224 732.128 173.758 732.128 147.8H730.128C730.128 173.575 725.873 193.643 717.464 208.097L719.192 209.103ZM732.128 147.8C732.128 121.84 727.849 101.246 719.196 86.1038L717.46 87.0961C725.874 101.821 730.128 122.026 730.128 147.8H732.128ZM719.196 86.1038C710.442 70.7845 695.259 63.2 673.928 63.2V65.2C694.731 65.2 709.147 72.5488 717.46 87.0961L719.196 86.1038ZM673.928 63.2C652.597 63.2 637.288 70.7841 628.267 86.0923L629.99 87.1077C638.569 72.5492 653.126 65.2 673.928 65.2V63.2ZM628.267 86.0923C619.342 101.237 614.928 121.836 614.928 147.8H616.928C616.928 122.03 621.314 101.829 629.99 87.1077L628.267 86.0923ZM1151.88 291V292H1152.88V291H1151.88ZM1050.68 291L1049.79 291.461L1050.07 292H1050.68V291ZM946.278 89.8L947.166 89.3394L946.886 88.8H946.278V89.8ZM944.678 89.8V88.8H943.587L943.682 89.8866L944.678 89.8ZM946.278 112.2L945.28 112.26L945.28 112.262L946.278 112.2ZM947.478 138.2L946.479 138.23L946.479 138.245L946.48 138.26L947.478 138.2ZM948.278 291V292H949.278V291H948.278ZM879.878 291H878.878V292H879.878V291ZM879.878 5.39998V4.39998H878.878V5.39998H879.878ZM980.678 5.39998L981.564 4.93571L981.283 4.39998H980.678V5.39998ZM1084.68 203.8L1083.79 204.264L1084.07 204.8H1084.68V203.8ZM1085.88 203.8V204.8H1086.92L1086.88 203.757L1085.88 203.8ZM1084.68 182.2L1085.68 182.136L1085.68 182.136L1084.68 182.2ZM1083.08 5.39998V4.39998H1082.08V5.39998H1083.08ZM1151.88 5.39998H1152.88V4.39998H1151.88V5.39998ZM1151.88 290H1050.68V292H1151.88V290ZM1051.57 290.539L947.166 89.3394L945.391 90.2606L1049.79 291.461L1051.57 290.539ZM946.278 88.8H944.678V90.8H946.278V88.8ZM943.682 89.8866C944.214 96.0084 944.747 103.466 945.28 112.26L947.276 112.139C946.743 103.334 946.209 95.8582 945.674 89.7134L943.682 89.8866ZM945.28 112.262C945.813 120.785 946.212 129.441 946.479 138.23L948.478 138.17C948.211 129.359 947.81 120.682 947.276 112.138L945.28 112.262ZM946.48 138.26C947.012 147.045 947.278 155.024 947.278 162.2H949.278C949.278 154.976 949.011 146.955 948.476 138.139L946.48 138.26ZM947.278 162.2V291H949.278V162.2H947.278ZM948.278 290H879.878V292H948.278V290ZM880.878 291V5.39998H878.878V291H880.878ZM879.878 6.39998H980.678V4.39998H879.878V6.39998ZM979.792 5.86426L1083.79 204.264L1085.56 203.336L981.564 4.93571L979.792 5.86426ZM1084.68 204.8H1085.88V202.8H1084.68V204.8ZM1086.88 203.757C1086.61 197.614 1086.21 190.407 1085.68 182.136L1083.68 182.264C1084.21 190.526 1084.61 197.719 1084.88 203.843L1086.88 203.757ZM1085.68 182.136C1085.14 173.88 1084.74 165.491 1084.48 156.969L1082.48 157.031C1082.75 165.575 1083.15 173.986 1083.68 182.264L1085.68 182.136ZM1084.48 156.969C1084.21 148.443 1084.08 140.987 1084.08 134.6H1082.08C1082.08 141.013 1082.21 148.491 1082.48 157.031L1084.48 156.969ZM1084.08 134.6V5.39998H1082.08V134.6H1084.08ZM1083.08 6.39998H1151.88V4.39998H1083.08V6.39998ZM1150.88 5.39998V291H1152.88V5.39998H1150.88ZM1355.47 291V292H1356.47V291H1355.47ZM1278.27 291H1277.27V292H1278.27V291ZM1278.27 68.6H1279.27V67.6H1278.27V68.6ZM1208.67 68.6H1207.67V69.6H1208.67V68.6ZM1208.67 5.39998V4.39998H1207.67V5.39998H1208.67ZM1425.07 5.39998H1426.07V4.39998H1425.07V5.39998ZM1425.07 68.6V69.6H1426.07V68.6H1425.07ZM1355.47 68.6V67.6H1354.47V68.6H1355.47ZM1355.47 290H1278.27V292H1355.47V290ZM1279.27 291V68.6H1277.27V291H1279.27ZM1278.27 67.6H1208.67V69.6H1278.27V67.6ZM1209.67 68.6V5.39998H1207.67V68.6H1209.67ZM1208.67 6.39998H1425.07V4.39998H1208.67V6.39998ZM1424.07 5.39998V68.6H1426.07V5.39998H1424.07ZM1425.07 67.6H1355.47V69.6H1425.07V67.6ZM1354.47 68.6V291H1356.47V68.6H1354.47ZM405.6 560.4L406.571 560.639L406.876 559.4H405.6V560.4ZM335.2 846V847H335.983L336.171 846.239L335.2 846ZM244 846L243.023 846.214L243.195 847H244V846ZM216.8 721.6L217.777 721.386L217.776 721.383L216.8 721.6ZM214.4 709.6L213.418 709.787L213.418 709.787L214.4 709.6ZM210.4 690.4L209.417 690.582L209.42 690.6L209.424 690.617L210.4 690.4ZM206.8 669.2L207.788 669.048L207.788 669.048L206.8 669.2ZM204.4 651.6L205.394 651.49H203.406L204.4 651.6ZM201.6 669.2L200.618 669.011L200.614 669.029L200.612 669.048L201.6 669.2ZM198 690.4L197.017 690.218L197.017 690.218L198 690.4ZM194 709.6L193.027 709.368L193.022 709.391L193.018 709.413L194 709.6ZM191.6 721.6L190.624 721.383L190.624 721.383L191.6 721.6ZM164 846V847H164.802L164.976 846.217L164 846ZM72.8 846L71.8294 846.241L72.0176 847H72.8V846ZM2 560.4V559.4H0.721832L1.02938 560.641L2 560.4ZM76.4 560.4L77.3771 560.187L77.2056 559.4H76.4V560.4ZM107.6 703.6L106.623 703.813L106.626 703.825L107.6 703.6ZM110.8 718.8L109.819 718.996L109.821 719.004L110.8 718.8ZM114.8 739.6L113.816 739.776L113.819 739.793L113.822 739.81L114.8 739.6ZM119.2 761.6L118.217 761.782L118.218 761.789L119.2 761.6ZM122 779.2L121.006 779.31L122.991 779.332L122 779.2ZM126 751.6L125.016 751.423L125.014 751.436L125.012 751.448L126 751.6ZM132 720.4L132.98 720.601L132.981 720.596L132 720.4ZM138 690.8L137.027 690.571L137.023 690.585L137.021 690.598L138 690.8ZM143.2 668.4L142.226 668.173L142.225 668.178L143.2 668.4ZM168.4 560.4V559.4H167.606L167.426 560.173L168.4 560.4ZM240 560.4L240.975 560.18L240.799 559.4H240V560.4ZM264.4 668.4L263.425 668.62L263.427 668.632L264.4 668.4ZM269.2 690.8L268.219 690.996L268.223 691.013L268.227 691.029L269.2 690.8ZM275.6 720.4L276.581 720.204L276.581 720.204L275.6 720.4ZM281.6 752L282.584 751.823L282.584 751.823L281.6 752ZM285.6 779.2L284.605 779.303L286.593 779.319L285.6 779.2ZM289.6 754.4L288.617 754.214L288.617 754.214L289.6 754.4ZM295.2 725.6L296.181 725.796L296.182 725.791L295.2 725.6ZM299.6 704L300.576 704.217L300.577 704.215L299.6 704ZM331.2 560.4V559.4H330.396L330.223 560.185L331.2 560.4ZM404.629 560.161L334.229 845.761L336.171 846.239L406.571 560.639L404.629 560.161ZM335.2 845H244V847H335.2V845ZM244.977 845.786L217.777 721.386L215.823 721.814L243.023 846.214L244.977 845.786ZM217.776 721.383C217.246 718.999 216.449 715.012 215.382 709.413L213.418 709.787C214.484 715.388 215.287 719.401 215.824 721.817L217.776 721.383ZM215.382 709.413C214.313 703.801 212.978 697.39 211.376 690.183L209.424 690.617C211.022 697.81 212.353 704.199 213.418 709.787L215.382 709.413ZM211.383 690.218C210.052 683.027 208.853 675.971 207.788 669.048L205.812 669.352C206.88 676.296 208.082 683.373 209.417 690.582L211.383 690.218ZM207.788 669.048C206.723 662.123 205.925 656.271 205.394 651.49L203.406 651.71C203.942 656.529 204.744 662.41 205.812 669.352L207.788 669.048ZM203.406 651.49C202.877 656.254 201.948 662.093 200.618 669.011L202.582 669.389C203.918 662.44 204.857 656.546 205.394 651.71L203.406 651.49ZM200.612 669.048C199.547 675.971 198.348 683.027 197.017 690.218L198.983 690.582C200.318 683.373 201.52 676.296 202.588 669.352L200.612 669.048ZM197.017 690.218C195.686 697.406 194.356 703.788 193.027 709.368L194.973 709.832C196.311 704.211 197.648 697.794 198.983 690.582L197.017 690.218ZM193.018 709.413C191.951 715.012 191.154 718.999 190.624 721.383L192.576 721.817C193.113 719.401 193.916 715.388 194.982 709.787L193.018 709.413ZM190.624 721.383L163.024 845.783L164.976 846.217L192.576 721.817L190.624 721.383ZM164 845H72.8V847H164V845ZM73.7706 845.759L2.97062 560.159L1.02938 560.641L71.8294 846.241L73.7706 845.759ZM2 561.4H76.4V559.4H2V561.4ZM75.4229 560.613L106.623 703.813L108.577 703.387L77.3771 560.187L75.4229 560.613ZM106.626 703.825C107.422 707.277 108.487 712.332 109.819 718.996L111.781 718.604C110.447 711.935 109.378 706.856 108.574 703.375L106.626 703.825ZM109.821 719.004C111.152 725.393 112.484 732.317 113.816 739.776L115.784 739.424C114.45 731.95 113.115 725.007 111.779 718.596L109.821 719.004ZM113.822 739.81C115.42 747.267 116.885 754.592 118.217 761.782L120.183 761.418C118.848 754.208 117.38 746.866 115.778 739.39L113.822 739.81ZM118.218 761.789C119.548 768.707 120.477 774.546 121.006 779.31L122.994 779.09C122.457 774.254 121.518 768.36 120.182 761.411L118.218 761.789ZM122.991 779.332C124.057 771.34 125.389 762.147 126.988 751.752L125.012 751.448C123.411 761.853 122.077 771.06 121.009 779.068L122.991 779.332ZM126.984 751.777C128.849 741.385 130.848 730.993 132.98 720.601L131.02 720.199C128.885 730.607 126.884 741.015 125.016 751.423L126.984 751.777ZM132.981 720.596C135.114 709.931 137.113 700.066 138.979 691.002L137.021 690.598C135.153 699.667 133.153 709.536 131.019 720.204L132.981 720.596ZM138.973 691.029C141.107 681.961 142.841 674.492 144.175 668.622L142.225 668.178C140.892 674.042 139.16 681.506 137.027 690.571L138.973 691.029ZM144.174 668.627L169.374 560.627L167.426 560.173L142.226 668.173L144.174 668.627ZM168.4 561.4H240V559.4H168.4V561.4ZM239.025 560.62L263.425 668.62L265.375 668.18L240.975 560.18L239.025 560.62ZM263.427 668.632C264.757 674.215 266.354 681.668 268.219 690.996L270.181 690.604C268.313 681.265 266.71 673.785 265.373 668.168L263.427 668.632ZM268.227 691.029C270.357 700.083 272.488 709.939 274.619 720.596L276.581 720.204C274.445 709.528 272.31 699.65 270.173 690.571L268.227 691.029ZM274.619 720.596C276.752 731.256 278.75 741.783 280.616 752.177L282.584 751.823C280.716 741.417 278.715 730.877 276.581 720.204L274.619 720.596ZM280.616 752.177C282.479 762.56 283.809 771.601 284.605 779.303L286.595 779.097C285.791 771.332 284.454 762.24 282.584 751.823L280.616 752.177ZM286.593 779.319C287.389 772.683 288.718 764.44 290.583 754.586L288.617 754.214C286.748 764.093 285.411 772.384 284.607 779.081L286.593 779.319ZM290.583 754.586C292.449 744.722 294.315 735.126 296.181 725.796L294.219 725.404C292.352 734.741 290.485 744.344 288.617 754.214L290.583 754.586ZM296.182 725.791C298.048 716.193 299.513 709.003 300.576 704.217L298.624 703.783C297.554 708.597 296.085 715.807 294.218 725.409L296.182 725.791ZM300.577 704.215L332.177 560.615L330.223 560.185L298.623 703.785L300.577 704.215ZM331.2 561.4H405.6V559.4H331.2V561.4ZM628.025 846V847H629.025V846H628.025ZM458.425 846H457.425V847H458.425V846ZM458.425 560.4V559.4H457.425V560.4H458.425ZM628.025 560.4H629.025V559.4H628.025V560.4ZM628.025 622.4V623.4H629.025V622.4H628.025ZM535.625 622.4V621.4H534.625V622.4H535.625ZM535.625 667.2H534.625V668.2H535.625V667.2ZM621.225 667.2H622.225V666.2H621.225V667.2ZM621.225 729.2V730.2H622.225V729.2H621.225ZM535.625 729.2V728.2H534.625V729.2H535.625ZM535.625 783.2H534.625V784.2H535.625V783.2ZM628.025 783.2H629.025V782.2H628.025V783.2ZM628.025 845H458.425V847H628.025V845ZM459.425 846V560.4H457.425V846H459.425ZM458.425 561.4H628.025V559.4H458.425V561.4ZM627.025 560.4V622.4H629.025V560.4H627.025ZM628.025 621.4H535.625V623.4H628.025V621.4ZM534.625 622.4V667.2H536.625V622.4H534.625ZM535.625 668.2H621.225V666.2H535.625V668.2ZM620.225 667.2V729.2H622.225V667.2H620.225ZM621.225 728.2H535.625V730.2H621.225V728.2ZM534.625 729.2V783.2H536.625V729.2H534.625ZM535.625 784.2H628.025V782.2H535.625V784.2ZM627.025 783.2V846H629.025V783.2H627.025ZM693.956 560.4V559.4H692.956V560.4H693.956ZM881.956 578.8L882.528 577.98L882.528 577.98L881.956 578.8ZM901.556 663.6L902.439 664.069L902.445 664.058L901.556 663.6ZM884.356 684L883.766 683.193L883.759 683.198L883.751 683.204L884.356 684ZM863.556 694.4L863.305 693.432L862.556 693.626V694.4H863.556ZM863.556 696.4H862.556V697.187L863.322 697.372L863.556 696.4ZM886.756 706L887.262 705.137L887.262 705.137L886.756 706ZM905.956 726.4L905.083 726.888L905.092 726.903L905.101 726.918L905.956 726.4ZM884.756 823.6L884.148 822.807L884.148 822.807L884.756 823.6ZM693.956 846H692.956V847H693.956V846ZM771.156 670H770.156V671H771.156V670ZM821.156 662L820.449 661.293L820.44 661.302L820.431 661.311L821.156 662ZM771.156 618.8V617.8H770.156V618.8H771.156ZM771.156 726.4V725.4H770.156V726.4H771.156ZM771.156 786.4H770.156V787.4H771.156V786.4ZM826.356 778L827.08 778.69L827.088 778.681L827.096 778.673L826.356 778ZM826.356 735.6L825.602 736.256L825.609 736.264L825.616 736.273L826.356 735.6ZM693.956 561.4H793.556V559.4H693.956V561.4ZM793.556 561.4C834.845 561.4 864.048 567.537 881.384 579.62L882.528 577.98C864.665 565.529 834.934 559.4 793.556 559.4V561.4ZM881.384 579.62C898.695 591.685 907.356 608.967 907.356 631.6H909.356C909.356 608.366 900.417 590.448 882.528 577.98L881.384 579.62ZM907.356 631.6C907.356 644.015 905.111 654.516 900.667 663.142L902.445 664.058C907.068 655.084 909.356 644.251 909.356 631.6H907.356ZM900.673 663.131C896.202 671.548 890.563 678.226 883.766 683.193L884.946 684.807C892.016 679.641 897.844 672.719 902.439 664.069L900.673 663.131ZM883.751 683.204C877.177 688.2 870.362 691.603 863.305 693.432L863.807 695.368C871.151 693.464 878.202 689.933 884.961 684.796L883.751 683.204ZM862.556 694.4V696.4H864.556V694.4H862.556ZM863.322 697.372C870.949 699.213 878.591 702.373 886.251 706.863L887.262 705.137C879.455 700.561 871.631 697.32 863.791 695.428L863.322 697.372ZM886.251 706.863C893.807 711.293 900.09 717.952 905.083 726.888L906.829 725.912C901.69 716.715 895.172 709.774 887.262 705.137L886.251 706.863ZM905.101 726.918C910.305 735.505 912.956 747.301 912.956 762.4H914.956C914.956 747.099 912.274 734.895 906.811 725.882L905.101 726.918ZM912.956 762.4C912.956 787.975 903.352 808.074 884.148 822.807L885.365 824.393C905.093 809.259 914.956 788.558 914.956 762.4H912.956ZM884.148 822.807C864.91 837.564 838.616 845 805.156 845V847C838.896 847 865.669 839.502 885.365 824.393L884.148 822.807ZM805.156 845H693.956V847H805.156V845ZM694.956 846V560.4H692.956V846H694.956ZM771.156 671H794.356V669H771.156V671ZM794.356 671C807.241 671 816.526 668.326 821.881 662.689L820.431 661.311C815.653 666.341 807.072 669 794.356 669V671ZM821.863 662.707C827.382 657.188 830.156 650.535 830.156 642.8H828.156C828.156 649.998 825.597 656.145 820.449 661.293L821.863 662.707ZM830.156 642.8C830.156 634.504 826.986 628.171 820.607 623.965C814.3 619.807 804.968 617.8 792.756 617.8V619.8C804.811 619.8 813.679 621.793 819.506 625.635C825.26 629.429 828.156 635.096 828.156 642.8H830.156ZM792.756 617.8H771.156V619.8H792.756V617.8ZM770.156 618.8V670H772.156V618.8H770.156ZM770.156 726.4V786.4H772.156V726.4H770.156ZM771.156 787.4H798.356V785.4H771.156V787.4ZM798.356 787.4C811.777 787.4 821.46 784.591 827.08 778.69L825.632 777.31C820.586 782.609 811.602 785.4 798.356 785.4V787.4ZM827.096 778.673C832.616 772.601 835.356 765.019 835.356 756H833.356C833.356 764.581 830.763 771.665 825.616 777.327L827.096 778.673ZM835.356 756C835.356 748.011 832.592 740.973 827.096 734.927L825.616 736.273C830.787 741.96 833.356 748.522 833.356 756H835.356ZM827.111 734.944C821.483 728.472 811.236 725.4 796.756 725.4V727.4C811.077 727.4 820.562 730.461 825.602 736.256L827.111 734.944ZM796.756 725.4H771.156V727.4H796.756V725.4ZM196.4 1401V1402H197.4V1401H196.4ZM26.8 1401H25.8V1402H26.8V1401ZM26.8 1115.4V1114.4H25.8V1115.4H26.8ZM196.4 1115.4H197.4V1114.4H196.4V1115.4ZM196.4 1177.4V1178.4H197.4V1177.4H196.4ZM104 1177.4V1176.4H103V1177.4H104ZM104 1222.2H103V1223.2H104V1222.2ZM189.6 1222.2H190.6V1221.2H189.6V1222.2ZM189.6 1284.2V1285.2H190.6V1284.2H189.6ZM104 1284.2V1283.2H103V1284.2H104ZM104 1338.2H103V1339.2H104V1338.2ZM196.4 1338.2H197.4V1337.2H196.4V1338.2ZM196.4 1400H26.8V1402H196.4V1400ZM27.8 1401V1115.4H25.8V1401H27.8ZM26.8 1116.4H196.4V1114.4H26.8V1116.4ZM195.4 1115.4V1177.4H197.4V1115.4H195.4ZM196.4 1176.4H104V1178.4H196.4V1176.4ZM103 1177.4V1222.2H105V1177.4H103ZM104 1223.2H189.6V1221.2H104V1223.2ZM188.6 1222.2V1284.2H190.6V1222.2H188.6ZM189.6 1283.2H104V1285.2H189.6V1283.2ZM103 1284.2V1338.2H105V1284.2H103ZM104 1339.2H196.4V1337.2H104V1339.2ZM195.4 1338.2V1401H197.4V1338.2H195.4ZM534.331 1401V1402H535.331V1401H534.331ZM433.131 1401L432.244 1401.46L432.524 1402H433.131V1401ZM328.731 1199.8L329.619 1199.34L329.339 1198.8H328.731V1199.8ZM327.131 1199.8V1198.8H326.041L326.135 1199.89L327.131 1199.8ZM328.731 1222.2L327.733 1222.26L327.733 1222.26L328.731 1222.2ZM329.931 1248.2L328.932 1248.23L328.932 1248.25L328.933 1248.26L329.931 1248.2ZM330.731 1401V1402H331.731V1401H330.731ZM262.331 1401H261.331V1402H262.331V1401ZM262.331 1115.4V1114.4H261.331V1115.4H262.331ZM363.131 1115.4L364.017 1114.94L363.736 1114.4H363.131V1115.4ZM467.131 1313.8L466.246 1314.26L466.526 1314.8H467.131V1313.8ZM468.331 1313.8V1314.8H469.376L469.33 1313.76L468.331 1313.8ZM467.131 1292.2L468.129 1292.14L468.129 1292.14L467.131 1292.2ZM465.531 1115.4V1114.4H464.531V1115.4H465.531ZM534.331 1115.4H535.331V1114.4H534.331V1115.4ZM534.331 1400H433.131V1402H534.331V1400ZM434.019 1400.54L329.619 1199.34L327.844 1200.26L432.244 1401.46L434.019 1400.54ZM328.731 1198.8H327.131V1200.8H328.731V1198.8ZM326.135 1199.89C326.667 1206.01 327.2 1213.47 327.733 1222.26L329.729 1222.14C329.196 1213.33 328.662 1205.86 328.127 1199.71L326.135 1199.89ZM327.733 1222.26C328.266 1230.78 328.665 1239.44 328.932 1248.23L330.931 1248.17C330.664 1239.36 330.263 1230.68 329.729 1222.14L327.733 1222.26ZM328.933 1248.26C329.465 1257.04 329.731 1265.02 329.731 1272.2H331.731C331.731 1264.98 331.464 1256.96 330.929 1248.14L328.933 1248.26ZM329.731 1272.2V1401H331.731V1272.2H329.731ZM330.731 1400H262.331V1402H330.731V1400ZM263.331 1401V1115.4H261.331V1401H263.331ZM262.331 1116.4H363.131V1114.4H262.331V1116.4ZM362.246 1115.86L466.246 1314.26L468.017 1313.34L364.017 1114.94L362.246 1115.86ZM467.131 1314.8H468.331V1312.8H467.131V1314.8ZM469.33 1313.76C469.063 1307.61 468.663 1300.41 468.129 1292.14L466.133 1292.26C466.666 1300.53 467.066 1307.72 467.332 1313.84L469.33 1313.76ZM468.129 1292.14C467.597 1283.88 467.197 1275.49 466.931 1266.97L464.932 1267.03C465.199 1275.58 465.599 1283.99 466.133 1292.26L468.129 1292.14ZM466.931 1266.97C466.664 1258.44 466.531 1250.99 466.531 1244.6H464.531C464.531 1251.01 464.665 1258.49 464.932 1267.03L466.931 1266.97ZM466.531 1244.6V1115.4H464.531V1244.6H466.531ZM465.531 1116.4H534.331V1114.4H465.531V1116.4ZM533.331 1115.4V1401H535.331V1115.4H533.331ZM835.525 1335L834.655 1334.51L834.65 1334.52L835.525 1335ZM783.525 1384.6L783.964 1385.5L783.964 1385.5L783.525 1384.6ZM611.925 1401H610.925V1402H611.925V1401ZM611.925 1115.4V1114.4H610.925V1115.4H611.925ZM817.125 1150.6L817.812 1149.87L817.812 1149.87L817.125 1150.6ZM689.125 1177.8V1176.8H688.125V1177.8H689.125ZM689.125 1337.8H688.125V1338.8H689.125V1337.8ZM757.925 1317.4L758.704 1318.03L758.704 1318.03L757.925 1317.4ZM853.325 1252.2C853.325 1285.14 847.081 1312.56 834.655 1334.51L836.395 1335.49C849.035 1313.17 855.325 1285.39 855.325 1252.2H853.325ZM834.65 1334.52C822.482 1356.47 805.299 1372.86 783.086 1383.7L783.964 1385.5C806.551 1374.47 824.035 1357.79 836.4 1335.48L834.65 1334.52ZM783.086 1383.7C760.85 1394.55 734.606 1400 704.325 1400V1402C734.844 1402 761.4 1396.51 783.964 1385.5L783.086 1383.7ZM704.325 1400H611.925V1402H704.325V1400ZM612.925 1401V1115.4H610.925V1401H612.925ZM611.925 1116.4H710.725V1114.4H611.925V1116.4ZM710.725 1116.4C756.694 1116.4 791.881 1128.09 816.438 1151.33L817.812 1149.87C792.769 1126.18 757.022 1114.4 710.725 1114.4V1116.4ZM816.438 1151.33C840.983 1174.55 853.325 1208.12 853.325 1252.2H855.325C855.325 1207.74 842.867 1173.58 817.812 1149.87L816.438 1151.33ZM775.325 1255C775.325 1229.16 770.073 1209.59 759.401 1196.47C748.696 1183.31 732.673 1176.8 711.525 1176.8V1178.8C732.243 1178.8 747.621 1185.16 757.849 1197.73C768.11 1210.34 773.325 1229.38 773.325 1255H775.325ZM711.525 1176.8H689.125V1178.8H711.525V1176.8ZM688.125 1177.8V1337.8H690.125V1177.8H688.125ZM689.125 1338.8H706.325V1336.8H689.125V1338.8ZM706.325 1338.8C729.983 1338.8 747.521 1331.94 758.704 1318.03L757.146 1316.77C746.462 1330.06 729.6 1336.8 706.325 1336.8V1338.8ZM758.704 1318.03C769.844 1304.17 775.325 1283.1 775.325 1255H773.325C773.325 1282.9 767.872 1303.43 757.146 1316.77L758.704 1318.03ZM250.4 1890L249.53 1889.51L249.525 1889.52L250.4 1890ZM198.4 1939.6L198.839 1940.5L198.839 1940.5L198.4 1939.6ZM26.8 1956H25.8V1957H26.8V1956ZM26.8 1670.4V1669.4H25.8V1670.4H26.8ZM232 1705.6L232.687 1704.87L232.687 1704.87L232 1705.6ZM104 1732.8V1731.8H103V1732.8H104ZM104 1892.8H103V1893.8H104V1892.8ZM172.8 1872.4L173.579 1873.03L173.579 1873.03L172.8 1872.4ZM268.2 1807.2C268.2 1840.14 261.956 1867.56 249.53 1889.51L251.27 1890.49C263.91 1868.17 270.2 1840.39 270.2 1807.2H268.2ZM249.525 1889.52C237.357 1911.47 220.174 1927.86 197.961 1938.7L198.839 1940.5C221.426 1929.47 238.91 1912.79 251.275 1890.48L249.525 1889.52ZM197.961 1938.7C175.725 1949.55 149.481 1955 119.2 1955V1957C149.719 1957 176.275 1951.51 198.839 1940.5L197.961 1938.7ZM119.2 1955H26.8V1957H119.2V1955ZM27.8 1956V1670.4H25.8V1956H27.8ZM26.8 1671.4H125.6V1669.4H26.8V1671.4ZM125.6 1671.4C171.569 1671.4 206.756 1683.09 231.313 1706.33L232.687 1704.87C207.644 1681.18 171.897 1669.4 125.6 1669.4V1671.4ZM231.313 1706.33C255.858 1729.55 268.2 1763.12 268.2 1807.2H270.2C270.2 1762.74 257.742 1728.58 232.687 1704.87L231.313 1706.33ZM190.2 1810C190.2 1784.16 184.948 1764.59 174.276 1751.47C163.571 1738.31 147.548 1731.8 126.4 1731.8V1733.8C147.118 1733.8 162.496 1740.16 172.724 1752.73C182.985 1765.34 188.2 1784.38 188.2 1810H190.2ZM126.4 1731.8H104V1733.8H126.4V1731.8ZM103 1732.8V1892.8H105V1732.8H103ZM104 1893.8H121.2V1891.8H104V1893.8ZM121.2 1893.8C144.858 1893.8 162.396 1886.94 173.579 1873.03L172.021 1871.77C161.337 1885.06 144.475 1891.8 121.2 1891.8V1893.8ZM173.579 1873.03C184.719 1859.17 190.2 1838.1 190.2 1810H188.2C188.2 1837.9 182.747 1858.43 172.021 1871.77L173.579 1873.03ZM506.15 1956V1957H507.15V1956H506.15ZM336.55 1956H335.55V1957H336.55V1956ZM336.55 1670.4V1669.4H335.55V1670.4H336.55ZM506.15 1670.4H507.15V1669.4H506.15V1670.4ZM506.15 1732.4V1733.4H507.15V1732.4H506.15ZM413.75 1732.4V1731.4H412.75V1732.4H413.75ZM413.75 1777.2H412.75V1778.2H413.75V1777.2ZM499.35 1777.2H500.35V1776.2H499.35V1777.2ZM499.35 1839.2V1840.2H500.35V1839.2H499.35ZM413.75 1839.2V1838.2H412.75V1839.2H413.75ZM413.75 1893.2H412.75V1894.2H413.75V1893.2ZM506.15 1893.2H507.15V1892.2H506.15V1893.2ZM506.15 1955H336.55V1957H506.15V1955ZM337.55 1956V1670.4H335.55V1956H337.55ZM336.55 1671.4H506.15V1669.4H336.55V1671.4ZM505.15 1670.4V1732.4H507.15V1670.4H505.15ZM506.15 1731.4H413.75V1733.4H506.15V1731.4ZM412.75 1732.4V1777.2H414.75V1732.4H412.75ZM413.75 1778.2H499.35V1776.2H413.75V1778.2ZM498.35 1777.2V1839.2H500.35V1777.2H498.35ZM499.35 1838.2H413.75V1840.2H499.35V1838.2ZM412.75 1839.2V1893.2H414.75V1839.2H412.75ZM413.75 1894.2H506.15V1892.2H413.75V1894.2ZM505.15 1893.2V1956H507.15V1893.2H505.15ZM818.881 1670.4L819.832 1670.71L820.261 1669.4H818.881V1670.4ZM725.281 1956V1957H726.006L726.232 1956.31L725.281 1956ZM634.481 1956L633.531 1956.31L633.756 1957H634.481V1956ZM541.281 1670.4V1669.4H539.903L540.331 1670.71L541.281 1670.4ZM628.081 1670.4L629.047 1670.14L628.849 1669.4H628.081V1670.4ZM666.881 1815.2L667.851 1814.96L667.849 1814.95L667.847 1814.94L666.881 1815.2ZM676.881 1861.6L675.898 1861.78L675.901 1861.8L675.904 1861.81L676.881 1861.6ZM680.081 1882.4L679.082 1882.45L681.076 1882.5L680.081 1882.4ZM682.881 1862L681.898 1861.82L681.896 1861.83L681.894 1861.84L682.881 1862ZM687.681 1836.8L686.704 1836.59L686.702 1836.6L686.699 1836.61L687.681 1836.8ZM692.881 1816L693.839 1816.29L693.843 1816.27L693.846 1816.26L692.881 1816ZM732.481 1670.4V1669.4H731.717L731.516 1670.14L732.481 1670.4ZM817.931 1670.09L724.331 1955.69L726.232 1956.31L819.832 1670.71L817.931 1670.09ZM725.281 1955H634.481V1957H725.281V1955ZM635.432 1955.69L542.232 1670.09L540.331 1670.71L633.531 1956.31L635.432 1955.69ZM541.281 1671.4H628.081V1669.4H541.281V1671.4ZM627.115 1670.66L665.915 1815.46L667.847 1814.94L629.047 1670.14L627.115 1670.66ZM665.911 1815.44C667.241 1820.76 668.839 1827.69 670.704 1836.21L672.658 1835.79C670.79 1827.25 669.188 1820.3 667.851 1814.96L665.911 1815.44ZM670.704 1836.21C672.569 1844.74 674.3 1853.26 675.898 1861.78L677.864 1861.42C676.262 1852.87 674.527 1844.33 672.658 1835.79L670.704 1836.21ZM675.904 1861.81C677.766 1870.32 678.82 1877.2 679.082 1882.45L681.08 1882.35C680.809 1876.94 679.73 1869.94 677.858 1861.39L675.904 1861.81ZM681.076 1882.5C681.607 1877.19 682.537 1870.42 683.868 1862.16L681.894 1861.84C680.559 1870.12 679.622 1876.94 679.086 1882.3L681.076 1882.5ZM683.864 1862.18C685.464 1853.65 687.063 1845.25 688.663 1836.99L686.699 1836.61C685.099 1844.88 683.499 1853.28 681.898 1861.82L683.864 1862.18ZM688.658 1837.01C690.522 1828.49 692.249 1821.59 693.839 1816.29L691.923 1815.71C690.313 1821.08 688.574 1828.04 686.704 1836.59L688.658 1837.01ZM693.846 1816.26L733.446 1670.66L731.516 1670.14L691.916 1815.74L693.846 1816.26ZM732.481 1671.4H818.881V1669.4H732.481V1671.4ZM1035.42 1956V1957H1036.42V1956H1035.42ZM865.816 1956H864.816V1957H865.816V1956ZM865.816 1670.4V1669.4H864.816V1670.4H865.816ZM1035.42 1670.4H1036.42V1669.4H1035.42V1670.4ZM1035.42 1732.4V1733.4H1036.42V1732.4H1035.42ZM943.016 1732.4V1731.4H942.016V1732.4H943.016ZM943.016 1777.2H942.016V1778.2H943.016V1777.2ZM1028.62 1777.2H1029.62V1776.2H1028.62V1777.2ZM1028.62 1839.2V1840.2H1029.62V1839.2H1028.62ZM943.016 1839.2V1838.2H942.016V1839.2H943.016ZM943.016 1893.2H942.016V1894.2H943.016V1893.2ZM1035.42 1893.2H1036.42V1892.2H1035.42V1893.2ZM1035.42 1955H865.816V1957H1035.42V1955ZM866.816 1956V1670.4H864.816V1956H866.816ZM865.816 1671.4H1035.42V1669.4H865.816V1671.4ZM1034.42 1670.4V1732.4H1036.42V1670.4H1034.42ZM1035.42 1731.4H943.016V1733.4H1035.42V1731.4ZM942.016 1732.4V1777.2H944.016V1732.4H942.016ZM943.016 1778.2H1028.62V1776.2H943.016V1778.2ZM1027.62 1777.2V1839.2H1029.62V1777.2H1027.62ZM1028.62 1838.2H943.016V1840.2H1028.62V1838.2ZM942.016 1839.2V1893.2H944.016V1839.2H942.016ZM943.016 1894.2H1035.42V1892.2H943.016V1894.2ZM1034.42 1893.2V1956H1036.42V1893.2H1034.42ZM1101.35 1956H1100.35V1957H1101.35V1956ZM1101.35 1670.4V1669.4H1100.35V1670.4H1101.35ZM1178.55 1670.4H1179.55V1669.4H1178.55V1670.4ZM1178.55 1893.6H1177.55V1894.6H1178.55V1893.6ZM1288.55 1893.6H1289.55V1892.6H1288.55V1893.6ZM1288.55 1956V1957H1289.55V1956H1288.55ZM1102.35 1956V1670.4H1100.35V1956H1102.35ZM1101.35 1671.4H1178.55V1669.4H1101.35V1671.4ZM1177.55 1670.4V1893.6H1179.55V1670.4H1177.55ZM1178.55 1894.6H1288.55V1892.6H1178.55V1894.6ZM1287.55 1893.6V1956H1289.55V1893.6H1287.55ZM1288.55 1955H1101.35V1957H1288.55V1955ZM1595.15 1890.4L1594.23 1890L1594.23 1890.01L1595.15 1890.4ZM1550.35 1941.6L1549.83 1940.74L1549.83 1940.74L1550.35 1941.6ZM1391.95 1941.6L1391.43 1942.46L1391.43 1942.46L1391.95 1941.6ZM1346.35 1890L1345.43 1890.4L1345.43 1890.41L1346.35 1890ZM1346.75 1735.2L1347.66 1735.61L1347.66 1735.61L1346.75 1735.2ZM1392.35 1684L1392.85 1684.86L1392.85 1684.86L1392.35 1684ZM1550.35 1684.4L1549.83 1685.26L1549.84 1685.26L1549.84 1685.26L1550.35 1684.4ZM1595.15 1735.6L1594.23 1735.99L1594.23 1736L1594.23 1736L1595.15 1735.6ZM1426.35 1873.6L1425.49 1874.11L1425.5 1874.13L1426.35 1873.6ZM1515.55 1873.6L1516.41 1874.1L1516.41 1874.1L1515.55 1873.6ZM1515.55 1751.6L1516.42 1751.1L1516.42 1751.1L1515.55 1751.6ZM1426.35 1751.6L1425.49 1751.09L1425.49 1751.09L1426.35 1751.6ZM1608.55 1812.8C1608.55 1842.29 1603.76 1868.02 1594.23 1890L1596.06 1890.8C1605.73 1868.51 1610.55 1842.51 1610.55 1812.8H1608.55ZM1594.23 1890.01C1584.98 1911.68 1570.19 1928.58 1549.83 1940.74L1550.86 1942.46C1571.57 1930.08 1586.65 1912.85 1596.07 1890.79L1594.23 1890.01ZM1549.83 1940.74C1529.77 1952.89 1503.43 1959 1470.75 1959V1961C1503.66 1961 1530.39 1954.85 1550.86 1942.46L1549.83 1940.74ZM1470.75 1959C1438.87 1959 1412.79 1952.89 1392.46 1940.74L1391.43 1942.46C1412.17 1954.84 1438.63 1961 1470.75 1961V1959ZM1392.46 1940.74C1372.11 1928.58 1357.04 1911.54 1347.26 1889.59L1345.43 1890.41C1355.38 1912.73 1370.72 1930.08 1391.43 1942.46L1392.46 1940.74ZM1347.26 1889.6C1337.73 1867.62 1332.95 1841.89 1332.95 1812.4H1330.95C1330.95 1842.11 1335.76 1868.11 1345.43 1890.4L1347.26 1889.6ZM1332.95 1812.4C1332.95 1782.91 1337.86 1757.32 1347.66 1735.61L1345.84 1734.79C1335.9 1756.81 1330.95 1782.69 1330.95 1812.4H1332.95ZM1347.66 1735.61C1357.44 1713.66 1372.5 1696.76 1392.85 1684.86L1391.84 1683.14C1371.12 1695.24 1355.78 1712.47 1345.83 1734.79L1347.66 1735.61ZM1392.85 1684.86C1413.19 1672.98 1439.27 1667 1471.15 1667V1665C1439.03 1665 1412.57 1671.02 1391.84 1683.14L1392.85 1684.86ZM1471.15 1667C1503.56 1667 1529.77 1673.11 1549.83 1685.26L1550.86 1683.54C1530.39 1671.15 1503.8 1665 1471.15 1665V1667ZM1549.84 1685.26C1570.19 1697.15 1584.98 1714.05 1594.23 1735.99L1596.07 1735.21C1586.65 1712.88 1571.57 1695.65 1550.85 1683.54L1549.84 1685.26ZM1594.23 1736C1603.76 1757.72 1608.55 1783.31 1608.55 1812.8H1610.55C1610.55 1783.09 1605.73 1757.22 1596.06 1735.2L1594.23 1736ZM1412.15 1812.8C1412.15 1838.76 1416.56 1859.23 1425.49 1874.11L1427.2 1873.09C1418.53 1858.63 1414.15 1838.57 1414.15 1812.8H1412.15ZM1425.5 1874.13C1434.78 1889.15 1449.94 1896.6 1470.75 1896.6V1894.6C1450.48 1894.6 1436.04 1887.39 1427.2 1873.07L1425.5 1874.13ZM1470.75 1896.6C1492.33 1896.6 1507.65 1889.16 1516.41 1874.1L1514.68 1873.1C1506.38 1887.37 1491.83 1894.6 1470.75 1894.6V1896.6ZM1516.41 1874.1C1525.07 1859.22 1529.35 1838.76 1529.35 1812.8H1527.35C1527.35 1838.58 1523.09 1858.64 1514.68 1873.1L1516.41 1874.1ZM1529.35 1812.8C1529.35 1786.84 1525.07 1766.25 1516.42 1751.1L1514.68 1752.1C1523.09 1766.82 1527.35 1787.03 1527.35 1812.8H1529.35ZM1516.42 1751.1C1507.66 1735.78 1492.48 1728.2 1471.15 1728.2V1730.2C1491.95 1730.2 1506.37 1737.55 1514.68 1752.1L1516.42 1751.1ZM1471.15 1728.2C1449.82 1728.2 1434.51 1735.78 1425.49 1751.09L1427.21 1752.11C1435.79 1737.55 1450.34 1730.2 1471.15 1730.2V1728.2ZM1425.49 1751.09C1416.56 1766.24 1412.15 1786.84 1412.15 1812.8H1414.15C1414.15 1787.03 1418.53 1766.83 1427.21 1752.11L1425.49 1751.09ZM1857.1 1694L1856.44 1694.75L1856.44 1694.76L1857.1 1694ZM1878.7 1798.8L1879.65 1799.1L1879.65 1799.1L1878.7 1798.8ZM1860.3 1830.8L1859.55 1830.14L1859.55 1830.14L1860.3 1830.8ZM1827.1 1853.2L1827.46 1854.13L1827.46 1854.13L1827.47 1854.13L1827.1 1853.2ZM1754.3 1861.2V1860.2H1753.3V1861.2H1754.3ZM1754.3 1956V1957H1755.3V1956H1754.3ZM1677.1 1956H1676.1V1957H1677.1V1956ZM1677.1 1670.4V1669.4H1676.1V1670.4H1677.1ZM1754.3 1732.8V1731.8H1753.3V1732.8H1754.3ZM1754.3 1798.4H1753.3V1799.4H1754.3V1798.4ZM1795.9 1790.8L1796.46 1791.63L1796.47 1791.62L1796.48 1791.61L1795.9 1790.8ZM1799.1 1741.2L1798.37 1741.89L1798.37 1741.89L1799.1 1741.2ZM1775.9 1671.4C1812.04 1671.4 1838.83 1679.24 1856.44 1694.75L1857.76 1693.25C1839.63 1677.29 1812.28 1669.4 1775.9 1669.4V1671.4ZM1856.44 1694.76C1874.31 1710.26 1883.3 1732.36 1883.3 1761.2H1885.3C1885.3 1731.91 1876.15 1709.21 1857.75 1693.24L1856.44 1694.76ZM1883.3 1761.2C1883.3 1774.17 1881.44 1786.6 1877.74 1798.5L1879.65 1799.1C1883.42 1787 1885.3 1774.36 1885.3 1761.2H1883.3ZM1877.74 1798.5C1874.05 1810.09 1867.99 1820.64 1859.55 1830.14L1861.04 1831.46C1869.67 1821.76 1875.87 1810.98 1879.65 1799.1L1877.74 1798.5ZM1859.55 1830.14C1851.4 1839.33 1840.47 1846.72 1826.72 1852.27L1827.47 1854.13C1841.45 1848.48 1852.66 1840.93 1861.05 1831.46L1859.55 1830.14ZM1826.74 1852.27C1813.02 1857.54 1796.08 1860.2 1775.9 1860.2V1862.2C1796.24 1862.2 1813.44 1859.52 1827.46 1854.13L1826.74 1852.27ZM1775.9 1860.2H1754.3V1862.2H1775.9V1860.2ZM1753.3 1861.2V1956H1755.3V1861.2H1753.3ZM1754.3 1955H1677.1V1957H1754.3V1955ZM1678.1 1956V1670.4H1676.1V1956H1678.1ZM1677.1 1671.4H1775.9V1669.4H1677.1V1671.4ZM1774.3 1731.8H1754.3V1733.8H1774.3V1731.8ZM1753.3 1732.8V1798.4H1755.3V1732.8H1753.3ZM1754.3 1799.4H1769.5V1797.4H1754.3V1799.4ZM1769.5 1799.4C1779.8 1799.4 1788.81 1796.82 1796.46 1791.63L1795.34 1789.97C1788.05 1794.91 1779.46 1797.4 1769.5 1797.4V1799.4ZM1796.48 1791.61C1804.31 1786.02 1808.1 1776.44 1808.1 1763.2H1806.1C1806.1 1776.09 1802.42 1784.91 1795.32 1789.99L1796.48 1791.61ZM1808.1 1763.2C1808.1 1753.92 1805.36 1746.33 1799.82 1740.51L1798.37 1741.89C1803.5 1747.27 1806.1 1754.34 1806.1 1763.2H1808.1ZM1799.82 1740.51C1794.23 1734.64 1785.65 1731.8 1774.3 1731.8V1733.8C1785.35 1733.8 1793.3 1736.56 1798.37 1741.89L1799.82 1740.51ZM2115.43 1956V1957H2116.43V1956H2115.43ZM1945.83 1956H1944.83V1957H1945.83V1956ZM1945.83 1670.4V1669.4H1944.83V1670.4H1945.83ZM2115.43 1670.4H2116.43V1669.4H2115.43V1670.4ZM2115.43 1732.4V1733.4H2116.43V1732.4H2115.43ZM2023.03 1732.4V1731.4H2022.03V1732.4H2023.03ZM2023.03 1777.2H2022.03V1778.2H2023.03V1777.2ZM2108.63 1777.2H2109.63V1776.2H2108.63V1777.2ZM2108.63 1839.2V1840.2H2109.63V1839.2H2108.63ZM2023.03 1839.2V1838.2H2022.03V1839.2H2023.03ZM2023.03 1893.2H2022.03V1894.2H2023.03V1893.2ZM2115.43 1893.2H2116.43V1892.2H2115.43V1893.2ZM2115.43 1955H1945.83V1957H2115.43V1955ZM1946.83 1956V1670.4H1944.83V1956H1946.83ZM1945.83 1671.4H2115.43V1669.4H1945.83V1671.4ZM2114.43 1670.4V1732.4H2116.43V1670.4H2114.43ZM2115.43 1731.4H2023.03V1733.4H2115.43V1731.4ZM2022.03 1732.4V1777.2H2024.03V1732.4H2022.03ZM2023.03 1778.2H2108.63V1776.2H2023.03V1778.2ZM2107.63 1777.2V1839.2H2109.63V1777.2H2107.63ZM2108.63 1838.2H2023.03V1840.2H2108.63V1838.2ZM2022.03 1839.2V1893.2H2024.03V1839.2H2022.03ZM2023.03 1894.2H2115.43V1892.2H2023.03V1894.2ZM2114.43 1893.2V1956H2116.43V1893.2H2114.43ZM2378.16 1800L2377.34 1799.43L2377.34 1799.44L2378.16 1800ZM2342.96 1831.6L2342.47 1830.73L2341.53 1831.26L2342.13 1832.16L2342.96 1831.6ZM2426.16 1956V1957H2428.03L2426.99 1955.44L2426.16 1956ZM2338.56 1956L2337.7 1956.5L2337.99 1957H2338.56V1956ZM2278.16 1852L2279.03 1851.5L2278.74 1851H2278.16V1852ZM2258.56 1852V1851H2257.56V1852H2258.56ZM2258.56 1956V1957H2259.56V1956H2258.56ZM2181.36 1956H2180.36V1957H2181.36V1956ZM2181.36 1670.4V1669.4H2180.36V1670.4H2181.36ZM2258.56 1728.8V1727.8H2257.56V1728.8H2258.56ZM2258.56 1794H2257.56V1795H2258.56V1794ZM2301.76 1786.4L2302.32 1787.23L2302.33 1787.22L2301.76 1786.4ZM2304.16 1736.8L2303.51 1737.55L2303.52 1737.56L2303.53 1737.57L2304.16 1736.8ZM2274.96 1671.4C2313.67 1671.4 2342.52 1678.42 2361.68 1692.31C2380.77 1706.15 2390.36 1726.92 2390.36 1754.8H2392.36C2392.36 1726.41 2382.56 1704.98 2362.85 1690.69C2343.2 1676.44 2313.85 1669.4 2274.96 1669.4V1671.4ZM2390.36 1754.8C2390.36 1771.96 2386.01 1786.82 2377.34 1799.43L2378.99 1800.57C2387.91 1787.58 2392.36 1772.31 2392.36 1754.8H2390.36ZM2377.34 1799.44C2368.9 1811.83 2357.29 1822.26 2342.47 1830.73L2343.46 1832.47C2358.51 1823.87 2370.36 1813.24 2378.99 1800.56L2377.34 1799.44ZM2342.13 1832.16L2425.33 1956.56L2426.99 1955.44L2343.79 1831.04L2342.13 1832.16ZM2426.16 1955H2338.56V1957H2426.16V1955ZM2339.43 1955.5L2279.03 1851.5L2277.3 1852.5L2337.7 1956.5L2339.43 1955.5ZM2278.16 1851H2258.56V1853H2278.16V1851ZM2257.56 1852V1956H2259.56V1852H2257.56ZM2258.56 1955H2181.36V1957H2258.56V1955ZM2182.36 1956V1670.4H2180.36V1956H2182.36ZM2181.36 1671.4H2274.96V1669.4H2181.36V1671.4ZM2273.76 1727.8H2258.56V1729.8H2273.76V1727.8ZM2257.56 1728.8V1794H2259.56V1728.8H2257.56ZM2258.56 1795H2272.96V1793H2258.56V1795ZM2272.96 1795C2284.84 1795 2294.65 1792.44 2302.32 1787.23L2301.2 1785.57C2293.94 1790.5 2284.56 1793 2272.96 1793V1795ZM2302.33 1787.22C2310.44 1781.63 2314.36 1771.91 2314.36 1758.4H2312.36C2312.36 1771.55 2308.55 1780.5 2301.19 1785.58L2302.33 1787.22ZM2314.36 1758.4C2314.36 1748.83 2311.2 1741.32 2304.8 1736.03L2303.53 1737.57C2309.39 1742.41 2312.36 1749.31 2312.36 1758.4H2314.36ZM2304.82 1736.05C2298.41 1730.47 2287.97 1727.8 2273.76 1727.8V1729.8C2287.82 1729.8 2297.65 1732.46 2303.51 1737.55L2304.82 1736.05Z" fill="white" fill-opacity="0.2"/>
</svg>
